<svg width="229" height="22" viewBox="0 0 229 22" fill="none" xmlns="http://www.w3.org/2000/svg">
<path d="M7.616 21.42C6.02933 21.42 4.66667 21.2707 3.528 20.972C2.408 20.6547 1.54 20.216 0.924 19.656C0.326667 19.0773 0.028 18.396 0.028 17.612C0.028 17.0893 0.14 16.6507 0.364 16.296C0.606667 15.9227 0.924 15.624 1.316 15.4C1.708 15.176 2.13733 15.0173 2.604 14.924C3.08933 14.812 3.56533 14.756 4.032 14.756C4.57333 14.756 5.05867 14.84 5.488 15.008C5.936 15.1573 6.29067 15.3813 6.552 15.68C6.81333 15.96 6.944 16.296 6.944 16.688C6.944 17.1173 6.85067 17.4813 6.664 17.78C6.496 18.0787 6.272 18.3307 5.992 18.536C5.712 18.7413 5.41333 18.9093 5.096 19.04C4.77867 19.1707 4.48 19.292 4.2 19.404C3.92 19.516 3.68667 19.6373 3.5 19.768C3.332 19.88 3.248 20.0293 3.248 20.216C3.248 20.328 3.34133 20.4493 3.528 20.58C3.73333 20.692 3.99467 20.7947 4.312 20.888C4.648 20.9627 4.99333 21 5.348 21C5.77733 21 6.19733 20.9253 6.608 20.776C7.01867 20.608 7.37333 20.2813 7.672 19.796C7.97067 19.292 8.16667 18.5547 8.26 17.584C8.372 16.6133 8.344 15.3067 8.176 13.664V1.736L5.656 1.456V1.176H15.036V14.7C15.036 16.548 14.756 17.9573 14.196 18.928C13.6547 19.8987 12.8333 20.5613 11.732 20.916C10.6493 21.252 9.27733 21.42 7.616 21.42ZM21.607 5.04C20.8604 5.04 20.1977 4.93733 19.619 4.732C19.0404 4.52667 18.583 4.23733 18.247 3.864C17.9297 3.49067 17.771 3.06133 17.771 2.576C17.771 2.09067 17.9297 1.67067 18.247 1.316C18.583 0.942666 19.0404 0.653332 19.619 0.447999C20.1977 0.242665 20.8604 0.139998 21.607 0.139998C22.3724 0.139998 23.0444 0.242665 23.623 0.447999C24.2017 0.653332 24.6497 0.942666 24.967 1.316C25.303 1.67067 25.471 2.09067 25.471 2.576C25.471 3.06133 25.303 3.49067 24.967 3.864C24.6497 4.23733 24.2017 4.52667 23.623 4.732C23.0444 4.93733 22.3724 5.04 21.607 5.04ZM16.987 21V20.72L18.387 20.44V8.008H16.987V7.7L24.967 6.58V20.44L26.367 20.72V21H16.987ZM34.1362 21.42C33.2588 21.42 32.4095 21.336 31.5882 21.168C30.7668 21.0187 30.0202 20.7947 29.3482 20.496C28.6948 20.1787 28.1722 19.796 27.7802 19.348C27.4068 18.9 27.2202 18.3867 27.2202 17.808C27.2202 17.2853 27.3788 16.8653 27.6962 16.548C28.0135 16.2307 28.4148 15.9973 28.9002 15.848C29.4042 15.68 29.9175 15.596 30.4402 15.596C31.0002 15.596 31.5135 15.68 31.9802 15.848C32.4468 15.9973 32.8202 16.2307 33.1002 16.548C33.3988 16.8653 33.5482 17.248 33.5482 17.696C33.5482 17.9947 33.5015 18.2653 33.4082 18.508C33.3148 18.7507 33.1468 19.0213 32.9042 19.32C32.6615 19.5813 32.4935 19.8053 32.4002 19.992C32.3068 20.16 32.2602 20.3373 32.2602 20.524C32.2602 20.6173 32.3068 20.72 32.4002 20.832C32.4935 20.944 32.6522 21.028 32.8762 21.084C33.1002 21.1587 33.4082 21.196 33.8002 21.196C34.3228 21.196 34.8175 21.1307 35.2842 21C35.7695 20.888 36.1615 20.692 36.4602 20.412C36.7588 20.132 36.9082 19.7493 36.9082 19.264C36.9082 18.816 36.7775 18.4053 36.5162 18.032C36.2548 17.6587 35.8162 17.2947 35.2002 16.94C34.5842 16.5667 33.7442 16.1653 32.6802 15.736C31.3548 15.176 30.3002 14.6347 29.5162 14.112C28.7508 13.5893 28.2002 13.048 27.8642 12.488C27.5468 11.928 27.3882 11.3307 27.3882 10.696C27.3882 9.42667 28.0415 8.428 29.3482 7.7C30.6548 6.95333 32.4095 6.58 34.6122 6.58C35.8255 6.58 36.9455 6.72 37.9722 7C39.0175 7.28 39.8575 7.672 40.4922 8.176C41.1268 8.68 41.4442 9.28667 41.4442 9.996C41.4442 10.4627 41.2948 10.8547 40.9962 11.172C40.7162 11.4893 40.3428 11.732 39.8762 11.9C39.4282 12.0493 38.9522 12.124 38.4482 12.124C38.0375 12.124 37.6362 12.0773 37.2442 11.984C36.8522 11.8907 36.4975 11.76 36.1802 11.592C35.8628 11.4053 35.6015 11.1813 35.3962 10.92C35.2095 10.64 35.1162 10.3227 35.1162 9.968C35.1162 9.38933 35.3868 8.848 35.9282 8.344C36.2268 8.064 36.4322 7.84 36.5442 7.672C36.6562 7.504 36.7122 7.35467 36.7122 7.224C36.7122 7.168 36.6842 7.112 36.6282 7.056C36.5722 7 36.4788 6.95333 36.3482 6.916C36.2175 6.87867 36.0402 6.85067 35.8162 6.832C35.6108 6.81333 35.3495 6.804 35.0322 6.804C34.5095 6.804 33.9962 6.86 33.4922 6.972C32.9882 7.06533 32.5682 7.23333 32.2322 7.476C31.9148 7.7 31.7562 8.02667 31.7562 8.456C31.7562 8.92267 31.9615 9.352 32.3722 9.744C32.7828 10.136 33.3148 10.5093 33.9682 10.864C34.6215 11.2 35.3215 11.536 36.0682 11.872C37.4868 12.5067 38.6068 13.076 39.4282 13.58C40.2495 14.084 40.8375 14.5787 41.1922 15.064C41.5468 15.5493 41.7242 16.072 41.7242 16.632C41.7242 17.4533 41.5002 18.1627 41.0522 18.76C40.6228 19.3573 40.0442 19.852 39.3162 20.244C38.5882 20.636 37.7762 20.9253 36.8802 21.112C35.9842 21.3173 35.0695 21.42 34.1362 21.42ZM51.2575 6.58C52.9935 6.58 54.4028 6.916 55.4855 7.588C56.5868 8.26 57.3988 9.128 57.9215 10.192C58.4442 11.2373 58.7055 12.3573 58.7055 13.552H49.5775V13.272L52.6295 12.712C52.6295 11.4427 52.6015 10.3787 52.5455 9.52C52.5082 8.64267 52.3868 7.98 52.1815 7.532C51.9948 7.084 51.6775 6.86 51.2295 6.86C50.8562 6.86 50.5575 7.056 50.3335 7.448C50.1095 7.84 49.9415 8.50267 49.8295 9.436C49.7362 10.3507 49.6895 11.6293 49.6895 13.272C49.6895 13.9627 49.7642 14.672 49.9135 15.4C50.0628 16.128 50.2962 16.8093 50.6135 17.444C50.9308 18.06 51.3415 18.564 51.8455 18.956C52.3682 19.3293 52.9935 19.516 53.7215 19.516C54.0575 19.516 54.4215 19.4507 54.8135 19.32C55.2242 19.1893 55.6162 18.9933 55.9895 18.732C56.3815 18.4707 56.7362 18.1627 57.0535 17.808C57.3708 17.4533 57.6228 17.052 57.8095 16.604L58.2015 16.856C57.6975 17.9013 57.1282 18.732 56.4935 19.348C55.8588 19.9453 55.1962 20.3933 54.5055 20.692C53.8148 20.9907 53.1428 21.1867 52.4895 21.28C51.8548 21.3733 51.2762 21.42 50.7535 21.42C49.4655 21.42 48.3362 21.2147 47.3655 20.804C46.3948 20.3747 45.5828 19.8147 44.9295 19.124C44.2948 18.4333 43.8095 17.668 43.4735 16.828C43.1562 15.9693 42.9975 15.12 42.9975 14.28C42.9975 13.0667 43.2028 11.984 43.6135 11.032C44.0242 10.08 44.5935 9.27733 45.3215 8.624C46.0682 7.952 46.9455 7.448 47.9535 7.112C48.9615 6.75733 50.0628 6.58 51.2575 6.58ZM68.1019 6.58C69.4459 6.58 70.6312 6.76667 71.6579 7.14C72.6846 7.51333 73.5432 8.04533 74.2339 8.736C74.9246 9.408 75.4472 10.2013 75.8019 11.116C76.1566 12.0307 76.3339 13.0293 76.3339 14.112C76.3339 15.064 76.1566 15.9787 75.8019 16.856C75.4659 17.7147 74.9526 18.4893 74.2619 19.18C73.5712 19.8707 72.7126 20.4213 71.6859 20.832C70.6592 21.224 69.4646 21.42 68.1019 21.42C66.6832 21.42 65.4512 21.224 64.4059 20.832C63.3606 20.4213 62.4926 19.8707 61.8019 19.18C61.1299 18.4893 60.6259 17.7147 60.2899 16.856C59.9726 15.9787 59.8139 15.064 59.8139 14.112C59.8139 13.0293 60.0006 12.0307 60.3739 11.116C60.7659 10.2013 61.3166 9.408 62.0259 8.736C62.7352 8.04533 63.6032 7.51333 64.6299 7.14C65.6566 6.76667 66.8139 6.58 68.1019 6.58ZM68.1019 6.86C67.6539 6.86 67.3179 7.20533 67.0939 7.896C66.8699 8.58667 66.7206 9.48267 66.6459 10.584C66.5712 11.6853 66.5339 12.8613 66.5339 14.112C66.5339 14.9707 66.5432 15.82 66.5619 16.66C66.5992 17.5 66.6646 18.256 66.7579 18.928C66.8699 19.6 67.0286 20.1413 67.2339 20.552C67.4579 20.944 67.7472 21.14 68.1019 21.14C68.4192 21.14 68.6712 20.944 68.8579 20.552C69.0632 20.16 69.2219 19.628 69.3339 18.956C69.4459 18.284 69.5206 17.528 69.5579 16.688C69.5952 15.848 69.6139 14.9893 69.6139 14.112C69.6139 13.1787 69.5952 12.2827 69.5579 11.424C69.5392 10.5467 69.4832 9.772 69.3899 9.1C69.2966 8.40933 69.1472 7.868 68.9419 7.476C68.7366 7.06533 68.4566 6.86 68.1019 6.86ZM96.2666 20.72V21H87.1666V20.72L88.2866 20.44V10.5C88.2866 9.92133 88.2026 9.47333 88.0346 9.156C87.8666 8.83867 87.6706 8.68 87.4466 8.68C87.1853 8.68 86.924 8.86667 86.6626 9.24C86.42 9.61333 86.196 10.0613 85.9906 10.584C85.7853 11.088 85.608 11.564 85.4586 12.012C85.328 12.4413 85.244 12.7307 85.2066 12.88V20.44L86.3266 20.72V21H77.2266V20.72L78.6266 20.44V8.008H77.2266V7.7L85.2066 6.58V11.144L85.4306 11.368C85.748 10.472 86.1306 9.66 86.5786 8.932C87.0266 8.204 87.568 7.63467 88.2026 7.224C88.856 6.79467 89.6493 6.58 90.5826 6.58C91.4413 6.58 92.1506 6.71067 92.7106 6.972C93.2706 7.23333 93.7 7.59733 93.9986 8.064C94.316 8.512 94.54 9.03467 94.6706 9.632C94.8013 10.2107 94.8666 10.8267 94.8666 11.48V20.44L96.2666 20.72ZM109.263 1.176C111.092 1.176 112.604 1.372 113.799 1.764C115.012 2.13733 115.917 2.70667 116.515 3.472C117.112 4.21867 117.411 5.17067 117.411 6.328C117.411 8.25067 116.524 9.72533 114.751 10.752C112.996 11.7787 110.485 12.292 107.219 12.292C106.733 12.292 106.323 12.2827 105.987 12.264C105.651 12.2453 105.389 12.2267 105.203 12.208V11.732C105.371 11.8067 105.651 11.844 106.043 11.844C107.443 11.844 108.516 11.396 109.263 10.5C110.028 9.58533 110.411 8.288 110.411 6.608C110.411 5.488 110.28 4.564 110.019 3.836C109.757 3.08933 109.365 2.53867 108.843 2.184C108.32 1.81067 107.667 1.624 106.883 1.624C106.808 1.624 106.659 1.63333 106.435 1.652C106.211 1.652 105.996 1.66133 105.791 1.68C105.585 1.68 105.445 1.69867 105.371 1.736V20.44L106.771 20.72V21H97.1108V20.72L98.5108 20.44V1.736L97.1108 1.456V1.176H109.263ZM125.442 6.58C126.786 6.58 127.971 6.76667 128.998 7.14C130.024 7.51333 130.883 8.04533 131.574 8.736C132.264 9.408 132.787 10.2013 133.142 11.116C133.496 12.0307 133.674 13.0293 133.674 14.112C133.674 15.064 133.496 15.9787 133.142 16.856C132.806 17.7147 132.292 18.4893 131.602 19.18C130.911 19.8707 130.052 20.4213 129.026 20.832C127.999 21.224 126.804 21.42 125.442 21.42C124.023 21.42 122.791 21.224 121.746 20.832C120.7 20.4213 119.832 19.8707 119.142 19.18C118.47 18.4893 117.966 17.7147 117.63 16.856C117.312 15.9787 117.154 15.064 117.154 14.112C117.154 13.0293 117.34 12.0307 117.714 11.116C118.106 10.2013 118.656 9.408 119.366 8.736C120.075 8.04533 120.943 7.51333 121.97 7.14C122.996 6.76667 124.154 6.58 125.442 6.58ZM125.442 6.86C124.994 6.86 124.658 7.20533 124.434 7.896C124.21 8.58667 124.06 9.48267 123.986 10.584C123.911 11.6853 123.874 12.8613 123.874 14.112C123.874 14.9707 123.883 15.82 123.902 16.66C123.939 17.5 124.004 18.256 124.098 18.928C124.21 19.6 124.368 20.1413 124.574 20.552C124.798 20.944 125.087 21.14 125.442 21.14C125.759 21.14 126.011 20.944 126.198 20.552C126.403 20.16 126.562 19.628 126.674 18.956C126.786 18.284 126.86 17.528 126.898 16.688C126.935 15.848 126.954 14.9893 126.954 14.112C126.954 13.1787 126.935 12.2827 126.898 11.424C126.879 10.5467 126.823 9.772 126.73 9.1C126.636 8.40933 126.487 7.868 126.282 7.476C126.076 7.06533 125.796 6.86 125.442 6.86ZM134.566 21V20.72L135.966 20.3V8.008H134.566V7.7L142.546 6.58V10.864L142.77 11.088C142.976 10.5093 143.19 9.97733 143.414 9.492C143.657 9.00667 143.9 8.61467 144.142 8.316C144.553 7.73733 145.038 7.308 145.598 7.028C146.177 6.72933 146.84 6.58 147.586 6.58C148.128 6.58 148.669 6.692 149.21 6.916C149.752 7.14 150.2 7.48533 150.554 7.952C150.928 8.41867 151.114 9.016 151.114 9.744C151.114 10.3413 150.965 10.8733 150.666 11.34C150.368 11.8067 149.948 12.1707 149.406 12.432C148.884 12.6933 148.268 12.824 147.558 12.824C146.924 12.824 146.354 12.712 145.85 12.488C145.365 12.2453 144.982 11.9187 144.702 11.508C144.422 11.0973 144.282 10.6307 144.282 10.108C144.282 9.884 144.301 9.688 144.338 9.52C144.394 9.33333 144.441 9.16533 144.478 9.016C144.534 8.848 144.562 8.708 144.562 8.596C144.562 8.46533 144.525 8.4 144.45 8.4C144.338 8.4 144.198 8.54 144.03 8.82C143.862 9.1 143.62 9.604 143.302 10.332C143.19 10.612 143.069 10.9667 142.938 11.396C142.808 11.8067 142.677 12.2547 142.546 12.74V20.3L143.946 20.72V21H134.566ZM157.542 21.42C155.843 21.42 154.62 20.9627 153.874 20.048C153.146 19.1147 152.782 17.7427 152.782 15.932V7.56H151.102V7.28L152.782 7L158.802 2.408H159.362V6.58L161.882 7.28V7.56H159.362V18.2C159.362 18.8907 159.474 19.3947 159.698 19.712C159.94 20.0107 160.23 20.16 160.566 20.16C160.752 20.16 160.939 20.1227 161.126 20.048C161.312 19.9733 161.499 19.8707 161.686 19.74V20.3C161.424 20.468 161.135 20.6267 160.818 20.776C160.5 20.9067 160.164 21.0187 159.81 21.112C159.474 21.224 159.11 21.2987 158.718 21.336C158.344 21.392 157.952 21.42 157.542 21.42ZM162.428 21V20.72L163.828 20.44V7.56H162.428V7.28L163.828 7C163.828 6.384 163.856 5.72133 163.912 5.012C163.987 4.30267 164.136 3.68667 164.36 3.164C164.659 2.492 165.116 1.932 165.732 1.484C166.348 1.036 167.123 0.699999 168.056 0.475999C169.008 0.251998 170.119 0.139998 171.388 0.139998C172.322 0.139998 173.18 0.214665 173.964 0.363999C174.767 0.513332 175.467 0.727999 176.064 1.008C176.68 1.288 177.156 1.64266 177.492 2.072C177.828 2.48267 177.996 2.968 177.996 3.528C177.996 4.06933 177.838 4.52667 177.52 4.9C177.203 5.27333 176.764 5.55333 176.204 5.74C175.644 5.92667 175 6.02 174.272 6.02C173.171 6.02 172.256 5.80533 171.528 5.376C170.819 4.94667 170.464 4.33067 170.464 3.528C170.464 3.11733 170.567 2.772 170.772 2.492C170.996 2.19333 171.248 1.94133 171.528 1.736C171.827 1.53067 172.079 1.344 172.284 1.176C172.508 1.008 172.62 0.84 172.62 0.672C172.62 0.578666 172.527 0.513333 172.34 0.475999C172.172 0.438666 171.883 0.42 171.472 0.42C170.782 0.42 170.306 0.578666 170.044 0.895998C169.783 1.21333 169.652 1.652 169.652 2.212C169.652 2.45467 169.68 2.828 169.736 3.332C169.811 3.836 169.904 4.41467 170.016 5.068C170.147 5.70267 170.278 6.34667 170.408 7H172.928V7.42H170.408V20.44L171.808 20.72V21H162.428ZM182.645 6.58C183.989 6.58 185.174 6.76667 186.201 7.14C187.228 7.51333 188.086 8.04533 188.777 8.736C189.468 9.408 189.99 10.2013 190.345 11.116C190.7 12.0307 190.877 13.0293 190.877 14.112C190.877 15.064 190.7 15.9787 190.345 16.856C190.009 17.7147 189.496 18.4893 188.805 19.18C188.114 19.8707 187.256 20.4213 186.229 20.832C185.202 21.224 184.008 21.42 182.645 21.42C181.226 21.42 179.994 21.224 178.949 20.832C177.904 20.4213 177.036 19.8707 176.345 19.18C175.673 18.4893 175.169 17.7147 174.833 16.856C174.516 15.9787 174.357 15.064 174.357 14.112C174.357 13.0293 174.544 12.0307 174.917 11.116C175.309 10.2013 175.86 9.408 176.569 8.736C177.278 8.04533 178.146 7.51333 179.173 7.14C180.2 6.76667 181.357 6.58 182.645 6.58ZM182.645 6.86C182.197 6.86 181.861 7.20533 181.637 7.896C181.413 8.58667 181.264 9.48267 181.189 10.584C181.114 11.6853 181.077 12.8613 181.077 14.112C181.077 14.9707 181.086 15.82 181.105 16.66C181.142 17.5 181.208 18.256 181.301 18.928C181.413 19.6 181.572 20.1413 181.777 20.552C182.001 20.944 182.29 21.14 182.645 21.14C182.962 21.14 183.214 20.944 183.401 20.552C183.606 20.16 183.765 19.628 183.877 18.956C183.989 18.284 184.064 17.528 184.101 16.688C184.138 15.848 184.157 14.9893 184.157 14.112C184.157 13.1787 184.138 12.2827 184.101 11.424C184.082 10.5467 184.026 9.772 183.933 9.1C183.84 8.40933 183.69 7.868 183.485 7.476C183.28 7.06533 183 6.86 182.645 6.86ZM199.694 20.44L201.094 20.72V21H191.714V20.72L193.114 20.44V1.568H191.714V1.26L199.694 0.139998V20.44ZM206.287 5.04C205.54 5.04 204.877 4.93733 204.299 4.732C203.72 4.52667 203.263 4.23733 202.927 3.864C202.609 3.49067 202.451 3.06133 202.451 2.576C202.451 2.09067 202.609 1.67067 202.927 1.316C203.263 0.942666 203.72 0.653332 204.299 0.447999C204.877 0.242665 205.54 0.139998 206.287 0.139998C207.052 0.139998 207.724 0.242665 208.303 0.447999C208.881 0.653332 209.329 0.942666 209.647 1.316C209.983 1.67067 210.151 2.09067 210.151 2.576C210.151 3.06133 209.983 3.49067 209.647 3.864C209.329 4.23733 208.881 4.52667 208.303 4.732C207.724 4.93733 207.052 5.04 206.287 5.04ZM201.667 21V20.72L203.067 20.44V8.008H201.667V7.7L209.647 6.58V20.44L211.047 20.72V21H201.667ZM220.188 6.58C221.532 6.58 222.717 6.76667 223.744 7.14C224.771 7.51333 225.629 8.04533 226.32 8.736C227.011 9.408 227.533 10.2013 227.888 11.116C228.243 12.0307 228.42 13.0293 228.42 14.112C228.42 15.064 228.243 15.9787 227.888 16.856C227.552 17.7147 227.039 18.4893 226.348 19.18C225.657 19.8707 224.799 20.4213 223.772 20.832C222.745 21.224 221.551 21.42 220.188 21.42C218.769 21.42 217.537 21.224 216.492 20.832C215.447 20.4213 214.579 19.8707 213.888 19.18C213.216 18.4893 212.712 17.7147 212.376 16.856C212.059 15.9787 211.9 15.064 211.9 14.112C211.9 13.0293 212.087 12.0307 212.46 11.116C212.852 10.2013 213.403 9.408 214.112 8.736C214.821 8.04533 215.689 7.51333 216.716 7.14C217.743 6.76667 218.9 6.58 220.188 6.58ZM220.188 6.86C219.74 6.86 219.404 7.20533 219.18 7.896C218.956 8.58667 218.807 9.48267 218.732 10.584C218.657 11.6853 218.62 12.8613 218.62 14.112C218.62 14.9707 218.629 15.82 218.648 16.66C218.685 17.5 218.751 18.256 218.844 18.928C218.956 19.6 219.115 20.1413 219.32 20.552C219.544 20.944 219.833 21.14 220.188 21.14C220.505 21.14 220.757 20.944 220.944 20.552C221.149 20.16 221.308 19.628 221.42 18.956C221.532 18.284 221.607 17.528 221.644 16.688C221.681 15.848 221.7 14.9893 221.7 14.112C221.7 13.1787 221.681 12.2827 221.644 11.424C221.625 10.5467 221.569 9.772 221.476 9.1C221.383 8.40933 221.233 7.868 221.028 7.476C220.823 7.06533 220.543 6.86 220.188 6.86Z" fill="black"/>
</svg>
